<?xml version="1.0" encoding="UTF-8"?>
<svg xmlns="http://www.w3.org/2000/svg" version="1.1" width="270" height="270" viewBox="0 0 270 270"><rect x="0" y="0" width="270" height="270" fill="#ffffff"/><g transform="scale(9.31)"><g transform="translate(0,0)"><path fill-rule="evenodd" d="M10 0L10 2L11 2L11 0ZM12 0L12 1L13 1L13 0ZM14 0L14 1L15 1L15 2L16 2L16 3L17 3L17 5L14 5L14 8L13 8L13 9L12 9L12 7L13 7L13 5L11 5L11 6L10 6L10 4L11 4L11 3L8 3L8 4L9 4L9 5L8 5L8 7L9 7L9 8L6 8L6 9L7 9L7 10L4 10L4 11L7 11L7 12L6 12L6 13L5 13L5 14L4 14L4 15L7 15L7 14L8 14L8 13L9 13L9 15L8 15L8 16L6 16L6 17L8 17L8 16L9 16L9 15L10 15L10 16L11 16L11 17L12 17L12 19L10 19L10 18L9 18L9 19L8 19L8 20L6 20L6 19L7 19L7 18L5 18L5 16L4 16L4 18L3 18L3 15L2 15L2 13L4 13L4 12L3 12L3 11L2 11L2 10L1 10L1 9L5 9L5 8L0 8L0 12L1 12L1 14L0 14L0 21L1 21L1 17L2 17L2 19L3 19L3 20L4 20L4 21L5 21L5 20L6 20L6 21L8 21L8 23L9 23L9 24L8 24L8 29L11 29L11 26L13 26L13 27L12 27L12 28L13 28L13 29L14 29L14 28L15 28L15 29L16 29L16 28L17 28L17 29L18 29L18 28L19 28L19 29L20 29L20 28L21 28L21 29L22 29L22 28L21 28L21 27L23 27L23 28L24 28L24 29L27 29L27 28L28 28L28 26L29 26L29 23L27 23L27 22L29 22L29 20L28 20L28 19L27 19L27 16L28 16L28 15L27 15L27 14L25 14L25 13L27 13L27 12L28 12L28 11L27 11L27 12L26 12L26 11L25 11L25 9L26 9L26 8L25 8L25 9L24 9L24 8L23 8L23 9L22 9L22 8L21 8L21 6L20 6L20 7L19 7L19 6L18 6L18 8L15 8L15 6L16 6L16 7L17 7L17 5L21 5L21 4L20 4L20 3L21 3L21 0L16 0L16 1L15 1L15 0ZM8 1L8 2L9 2L9 1ZM18 1L18 2L17 2L17 3L18 3L18 4L19 4L19 3L18 3L18 2L20 2L20 1ZM12 2L12 4L15 4L15 3L13 3L13 2ZM9 6L9 7L10 7L10 6ZM11 6L11 7L12 7L12 6ZM10 8L10 9L9 9L9 10L7 10L7 11L9 11L9 12L11 12L11 13L10 13L10 15L11 15L11 14L13 14L13 15L12 15L12 16L14 16L14 15L15 15L15 14L16 14L16 15L17 15L17 16L16 16L16 17L13 17L13 19L12 19L12 20L10 20L10 19L9 19L9 20L8 20L8 21L9 21L9 23L10 23L10 24L11 24L11 25L13 25L13 24L14 24L14 26L16 26L16 25L17 25L17 28L18 28L18 26L19 26L19 27L21 27L21 26L25 26L25 25L26 25L26 24L27 24L27 25L28 25L28 24L27 24L27 23L25 23L25 25L21 25L21 26L19 26L19 25L20 25L20 24L19 24L19 22L20 22L20 21L19 21L19 22L18 22L18 23L17 23L17 22L16 22L16 21L17 21L17 20L22 20L22 18L21 18L21 19L20 19L20 18L18 18L18 17L20 17L20 15L21 15L21 17L25 17L25 21L26 21L26 20L27 20L27 19L26 19L26 17L25 17L25 16L27 16L27 15L25 15L25 14L23 14L23 15L24 15L24 16L22 16L22 14L18 14L18 15L17 15L17 14L16 14L16 13L17 13L17 12L18 12L18 13L25 13L25 12L24 12L24 11L23 11L23 10L21 10L21 8L20 8L20 10L19 10L19 11L18 11L18 10L17 10L17 12L16 12L16 11L14 11L14 10L16 10L16 9L13 9L13 10L12 10L12 9L11 9L11 8ZM18 8L18 9L19 9L19 8ZM27 8L27 9L28 9L28 10L29 10L29 9L28 9L28 8ZM10 9L10 11L11 11L11 9ZM20 10L20 12L23 12L23 11L21 11L21 10ZM1 11L1 12L2 12L2 11ZM12 11L12 13L13 13L13 14L14 14L14 13L15 13L15 12L13 12L13 11ZM6 13L6 14L7 14L7 13ZM28 13L28 14L29 14L29 13ZM18 15L18 16L17 16L17 17L16 17L16 18L14 18L14 19L15 19L15 20L13 20L13 21L10 21L10 20L9 20L9 21L10 21L10 22L13 22L13 23L14 23L14 24L15 24L15 25L16 25L16 24L17 24L17 25L18 25L18 24L17 24L17 23L16 23L16 22L14 22L14 21L15 21L15 20L16 20L16 19L17 19L17 17L18 17L18 16L19 16L19 15ZM28 17L28 18L29 18L29 17ZM21 21L21 24L24 24L24 21ZM22 22L22 23L23 23L23 22ZM9 25L9 27L10 27L10 25ZM13 27L13 28L14 28L14 27ZM24 27L24 28L25 28L25 27ZM26 27L26 28L27 28L27 27ZM0 0L0 7L7 7L7 0ZM1 1L1 6L6 6L6 1ZM2 2L2 5L5 5L5 2ZM22 0L22 7L29 7L29 0ZM23 1L23 6L28 6L28 1ZM24 2L24 5L27 5L27 2ZM0 22L0 29L7 29L7 22ZM1 23L1 28L6 28L6 23ZM2 24L2 27L5 27L5 24Z" fill="#000000"/></g></g></svg>
